<?xml version="1.0" encoding="UTF-8" standalone="no"?>
<!-- Created with Inkscape (http://www.inkscape.org/) -->

<svg
   xmlns:dc="http://purl.org/dc/elements/1.1/"
   xmlns:cc="http://creativecommons.org/ns#"
   xmlns:rdf="http://www.w3.org/1999/02/22-rdf-syntax-ns#"
   xmlns:svg="http://www.w3.org/2000/svg"
   xmlns="http://www.w3.org/2000/svg"
   xmlns:sodipodi="http://sodipodi.sourceforge.net/DTD/sodipodi-0.dtd"
   xmlns:inkscape="http://www.inkscape.org/namespaces/inkscape"
   width="1000"
   height="810.96094"
   id="svg3061"
   version="1.1"
   inkscape:version="0.48.2 r9819"
   sodipodi:docname="New document 2">
  <defs
     id="defs3063">
    <clipPath
       id="clipPath3145"
       clipPathUnits="userSpaceOnUse">
      <path
         id="path3147"
         d="m 284,6431.49 0,-358.82 442.566,0 0,358.82 -442.566,0 z"
         inkscape:connector-curvature="0" />
    </clipPath>
  </defs>
  <sodipodi:namedview
     id="base"
     pagecolor="#ffffff"
     bordercolor="#666666"
     borderopacity="1.0"
     inkscape:pageopacity="0.0"
     inkscape:pageshadow="2"
     inkscape:zoom="0.49497475"
     inkscape:cx="359.09173"
     inkscape:cy="181.09987"
     inkscape:document-units="px"
     inkscape:current-layer="g3079"
     showgrid="false"
     fit-margin-left="0.5"
     fit-margin-bottom="0.5"
     fit-margin-top="0.5"
     fit-margin-right="0.5"
     inkscape:window-width="1273"
     inkscape:window-height="1038"
     inkscape:window-x="640"
     inkscape:window-y="-21"
     inkscape:window-maximized="0" />
  <metadata
     id="metadata3066">
    <rdf:RDF>
      <cc:Work
         rdf:about="">
        <dc:format>image/svg+xml</dc:format>
        <dc:type
           rdf:resource="http://purl.org/dc/dcmitype/StillImage" />
        <dc:title></dc:title>
      </cc:Work>
    </rdf:RDF>
  </metadata>
  <g
     inkscape:label="Layer 1"
     inkscape:groupmode="layer"
     id="layer1"
     transform="translate(77.920801,118.90421)">
    <g
       transform="matrix(1.25,0,0,-1.25,62.816816,1015.5587)"
       inkscape:label="xe-cobrand"
       id="g3077">
      <g
         transform="scale(0.12,0.12)"
         id="g3079">
        <g
           id="g3141"
           transform="matrix(15.048603,0,0,15.048603,-5208.7207,-89225.187)">
          <g
             clip-path="url(#clipPath3145)"
             id="g3143">
            <path
               id="path3149"
               style="fill:#f8b40d;fill-opacity:1;fill-rule:nonzero;stroke:none"
               d="m 428.016,6385.54 c -0.129,-0.1 -0.258,-0.2 -0.356,-0.29 -0.097,-0.07 -0.16,-0.13 -0.226,-0.23 -0.321,-0.42 -0.481,-0.9 -0.481,-1.45 0,-0.64 0.223,-1.19 0.707,-1.64 0.449,-0.46 1.031,-0.68 1.707,-0.72 0.418,0.04 0.805,0.13 1.156,0.29 0.161,0.13 0.356,0.26 0.516,0.43 0.031,0.03 0.098,0.09 0.129,0.12 29.383,23.91 63.687,35.89 102.918,35.86 45.664,0.03 84.672,-16.17 116.949,-48.54 32.278,-32.37 48.399,-71.45 48.399,-117.24 0,-35.02 -9.457,-66.13 -28.348,-93.33 -5.793,-8.32 -12.488,-16.3 -20.051,-23.91 -32.277,-32.37 -71.285,-48.54 -116.949,-48.57 -26.777,0.03 -51.234,5.58 -73.406,16.72 -10.395,5.23 -20.309,11.68 -29.703,19.33 -0.098,0.09 -0.196,0.16 -0.293,0.22 -0.289,0.23 -0.579,0.36 -0.899,0.42 -0.16,0.03 -0.324,0.03 -0.484,0.03 -0.192,0 -0.356,0 -0.516,-0.03 -0.449,-0.1 -0.836,-0.29 -1.187,-0.64 -0.485,-0.46 -0.711,-1 -0.711,-1.68 0,-0.65 0.226,-1.19 0.711,-1.65 0.031,-0.03 0.062,-0.09 0.125,-0.13 6.375,-5.84 12.972,-11.13 19.824,-15.87 29.191,-20.24 62.562,-30.37 100.121,-30.37 49.398,0 91.555,17.52 126.473,52.57 34.949,35.01 52.425,77.29 52.425,126.83 0,49.53 -17.476,91.84 -52.425,126.89 -34.918,35.01 -77.075,52.53 -126.473,52.53 -46.215,0 -86.09,-15.33 -119.652,-45.95 l 0,0"
               inkscape:connector-curvature="0" />
            <path
               id="path3151"
               style="fill:#1b3356;fill-opacity:1;fill-rule:nonzero;stroke:none"
               d="m 580.941,6286.3 c 0.098,-0.09 0.227,-0.22 0.356,-0.35 1.32,-1.36 2.574,-2.74 3.734,-4.2 l -74.824,0 c 1.125,1.46 2.383,2.84 3.734,4.2 0.094,0.1 0.223,0.23 0.352,0.35 1.414,1.39 2.898,2.68 4.41,3.88 8.301,6.48 17.957,9.74 28.93,9.71 10.976,0.03 20.629,-3.23 28.898,-9.71 1.516,-1.2 2.961,-2.49 4.41,-3.88 l 0,0 z m 52.395,0 c -0.516,1.33 -1.063,2.62 -1.609,3.88 -4.477,9.97 -10.911,19.17 -19.247,27.52 -17.925,17.98 -39.617,26.98 -65.039,26.95 -25.425,0.03 -47.148,-8.97 -65.136,-26.95 -3.7,-3.71 -7.016,-7.61 -9.946,-11.65 -0.515,-0.71 -1.027,-1.42 -1.511,-2.16 -0.418,-0.61 -0.836,-1.26 -1.254,-1.9 -0.485,-0.68 -0.934,-1.39 -1.352,-2.13 -1.898,-3.13 -3.605,-6.36 -5.086,-9.68 -3.539,-7.91 -5.855,-16.3 -6.984,-25.18 -0.516,-4.09 -0.77,-8.32 -0.77,-12.68 0,-6.8 0.641,-13.32 1.93,-19.59 3.508,-17.23 11.809,-32.43 24.973,-45.63 2.992,-3 6.113,-5.77 9.3,-8.29 16.059,-12.56 34.661,-18.81 55.836,-18.81 2.317,0 4.602,0.06 6.856,0.22 2.187,0.16 4.344,0.35 6.5,0.65 4.473,0.61 8.851,1.54 13.066,2.77 11.746,3.42 22.492,9.26 32.246,17.56 1.383,1.16 2.735,2.39 4.055,3.64 0.031,0.04 0.098,0.07 0.129,0.1 0.773,0.81 1.512,1.65 2.254,2.45 0.125,0.16 0.254,0.29 0.418,0.45 1.383,1.65 2.09,3.59 2.09,5.81 0,2.55 -0.903,4.72 -2.735,6.49 -0.16,0.16 -0.355,0.32 -0.515,0.45 l -22.399,16.01 c -1.449,0.87 -3.09,1.29 -4.859,1.29 -2.156,0 -4.055,-0.61 -5.695,-1.87 -0.325,-0.29 -0.645,-0.55 -0.934,-0.81 -4.344,-3.64 -9.043,-6.39 -14.098,-8.19 -0.996,-0.36 -1.992,-0.68 -3.023,-0.97 -0.418,-0.1 -0.867,-0.23 -1.32,-0.36 -1.707,-0.42 -3.411,-0.74 -5.18,-0.97 -2.156,-0.29 -4.379,-0.42 -6.664,-0.42 -13.16,0 -24.395,4.68 -33.692,14.04 -2.32,2.29 -4.347,4.75 -6.05,7.3 -1.547,2.29 -2.864,4.64 -3.961,7.09 -0.094,0.16 -0.16,0.36 -0.223,0.55 -0.644,1.52 -1.191,3.04 -1.676,4.62 l -0.289,0.93 c -0.097,0.33 -0.16,0.65 -0.258,0.97 l -0.129,0.52 c -0.062,0.26 -0.128,0.52 -0.16,0.74 -0.031,0.1 -0.031,0.16 -0.062,0.23 -0.035,0.09 -0.035,0.16 -0.035,0.22 -0.032,0.1 -0.032,0.17 -0.063,0.26 -0.066,0.26 -0.129,0.52 -0.16,0.81 l -0.484,3.1 c -0.032,0.16 -0.032,0.28 -0.032,0.45 l 130.207,0 c 2.481,0.03 4.633,0.93 6.438,2.67 1.832,1.81 2.734,3.97 2.734,6.52 0,0.16 0,0.33 0,0.49 -0.031,0.29 -0.062,0.58 -0.093,0.87 -0.133,1.29 -0.293,2.58 -0.454,3.84 -0.031,0.48 -0.097,1.13 -0.16,2 -0.097,1.19 -0.258,2.45 -0.449,3.78 -0.129,0.8 -0.262,1.58 -0.387,2.35 l -0.097,0.49 c -0.032,0.16 -0.067,0.29 -0.098,0.45 -0.031,0.19 -0.062,0.39 -0.094,0.58 -0.035,0.1 -0.035,0.16 -0.035,0.26 l -0.129,0.42 -0.738,3.61 c -0.031,0.13 -0.066,0.26 -0.098,0.39 -0.933,3.9 -2.125,7.74 -3.57,11.45 l 0,0"
               inkscape:connector-curvature="0" />
            <path
               id="path3153"
               style="fill:#1b3356;fill-opacity:1;fill-rule:nonzero;stroke:none"
               d="m 439.922,6323.03 c -0.192,0.16 -0.387,0.35 -0.582,0.52 l -22.363,15.94 c -1.418,0.8 -2.993,1.22 -4.731,1.22 -2.609,0 -4.797,-0.9 -6.629,-2.67 -0.293,-0.29 -0.582,-0.59 -0.804,-0.88 l -14.227,-18.94 -21.883,-29.14 -25.906,34.5 -9.559,12.71 c -0.547,0.62 -1.32,1.2 -2.254,1.71 -2.25,1.26 -4.921,1.91 -7.98,1.97 l -29.027,0 c -0.192,0 -0.387,0 -0.579,0 -0.226,0 -0.418,0 -0.613,0 -2.347,-0.13 -4.344,-1.03 -6.015,-2.68 -1.836,-1.77 -2.77,-3.93 -2.77,-6.49 0,-1.8 0.449,-3.41 1.383,-4.84 l 5.312,-7.03 50.203,-66.83 -54.097,-71.97 0.031,0 -1.449,-1.9 c -0.934,-1.42 -1.383,-3.03 -1.383,-4.84 0,-2.55 0.934,-4.71 2.77,-6.52 1.769,-1.71 3.89,-2.62 6.371,-2.68 l 29.832,0 c 3.09,0.06 5.726,0.71 7.949,1.97 1.027,0.58 1.832,1.23 2.445,1.9 l 35.336,47.05 35.367,-47.05 c 0.578,-0.67 1.383,-1.32 2.446,-1.9 2.191,-1.26 4.828,-1.91 7.949,-1.97 l 29.801,0 c 2.476,0.06 4.632,0.97 6.406,2.68 1.832,1.81 2.734,3.97 2.734,6.52 0,1.81 -0.453,3.42 -1.383,4.84 l -14.289,19 0.032,0 -41.258,54.87 44.765,59.57 c 0.934,1.45 1.383,3.06 1.383,4.87 0,2.55 -0.902,4.71 -2.734,6.49 l 0,0"
               inkscape:connector-curvature="0" />
          </g>
        </g>
      </g>
    </g>
  </g>
</svg>
